<svg id="visual" viewBox="0 0 900 600" width="900" height="600" xmlns="http://www.w3.org/2000/svg" xmlns:xlink="http://www.w3.org/1999/xlink" version="1.1"><rect x="0" y="0" width="900" height="600" fill="#eee"></rect><path d="M0 247L30 233.3C60 219.7 120 192.3 180 196C240 199.7 300 234.3 360 242.5C420 250.7 480 232.3 540 211.8C600 191.3 660 168.7 720 170.8C780 173 840 200 870 213.5L900 227L900 0L870 0C840 0 780 0 720 0C660 0 600 0 540 0C480 0 420 0 360 0C300 0 240 0 180 0C120 0 60 0 30 0L0 0Z" fill="#008cba" stroke-linecap="round" stroke-linejoin="miter"></path></svg>